<svg width="512" height="512" viewBox="0 0 512 512" fill="none" xmlns="http://www.w3.org/2000/svg">
<rect width="512" height="512" fill="#051346"/>
<path d="M0 256.536V239.916C15.0913 239.916 25.619 236.789 31.5833 230.534C37.6379 224.279 40.6651 213.825 40.6651 199.171V156.281C40.6651 143.95 41.8399 133.272 44.1895 124.247C46.6294 115.223 50.5603 107.762 55.9823 101.864C61.4044 95.9669 68.6337 91.5885 77.6704 88.7292C86.7071 85.8699 97.8675 84.4402 111.151 84.4402V110.71C100.669 110.71 92.4002 112.319 86.3457 115.535C80.3814 118.752 76.1342 123.756 73.6039 130.547C71.164 137.248 69.9441 145.826 69.9441 156.281V209.893C69.9441 216.863 68.9952 223.207 67.0975 228.926C65.2901 234.644 61.9014 239.559 56.9312 243.669C51.961 247.779 44.8672 250.951 35.6498 253.185C26.5227 255.419 14.6395 256.536 0 256.536ZM111.151 427.56C97.8675 427.56 86.7071 426.13 77.6704 423.271C68.6337 420.411 61.4044 416.033 55.9823 410.136C50.5603 404.238 46.6294 396.777 44.1895 387.753C41.8399 378.728 40.6651 368.05 40.6651 355.719V312.829C40.6651 298.175 37.6379 287.721 31.5833 281.466C25.619 275.211 15.0913 272.084 0 272.084V255.464C14.6395 255.464 26.5227 256.581 35.6498 258.815C44.8672 261.048 51.961 264.221 56.9312 268.331C61.9014 272.441 65.2901 277.356 67.0975 283.074C68.9952 288.793 69.9441 295.137 69.9441 302.107V355.719C69.9441 366.174 71.164 374.751 73.6039 381.453C76.1342 388.155 80.3814 393.114 86.3457 396.33C92.4002 399.637 100.669 401.29 111.151 401.29V427.56ZM0 272.084V239.916H31.9899V272.084H0Z" fill="#0075C9"/>
<path d="M512 255.464V272.084C496.909 272.084 486.336 275.211 480.281 281.466C474.317 287.721 471.335 298.175 471.335 312.829V355.719C471.335 368.05 470.115 378.728 467.675 387.753C465.325 396.777 461.44 404.238 456.018 410.136C450.596 416.033 443.366 420.411 434.33 423.271C425.293 426.13 414.133 427.56 400.849 427.56V401.29C411.331 401.29 419.555 399.637 425.519 396.33C431.573 393.114 435.821 388.155 438.261 381.453C440.791 374.751 442.056 366.174 442.056 355.719V302.107C442.056 295.137 442.96 288.793 444.767 283.074C446.665 277.356 450.099 272.441 455.069 268.331C460.039 264.221 467.088 261.048 476.215 258.815C485.432 256.581 497.361 255.464 512 255.464ZM400.849 84.4402C414.133 84.4402 425.293 85.8699 434.33 88.7292C443.366 91.5885 450.596 95.9669 456.018 101.864C461.44 107.762 465.325 115.223 467.675 124.247C470.115 133.272 471.335 143.95 471.335 156.281V199.171C471.335 213.825 474.317 224.279 480.281 230.534C486.336 236.789 496.909 239.916 512 239.916V256.536C497.361 256.536 485.432 255.419 476.215 253.185C467.088 250.951 460.039 247.779 455.069 243.669C450.099 239.559 446.665 234.644 444.767 228.926C442.96 223.207 442.056 216.863 442.056 209.893V156.281C442.056 145.826 440.791 137.248 438.261 130.547C435.821 123.756 431.573 118.752 425.519 115.535C419.555 112.319 411.331 110.71 400.849 110.71V84.4402ZM512 239.916V272.084H480.01V239.916H512Z" fill="#0075C9"/>
<path d="M126.212 151.767C126.212 151.491 126.442 151.267 126.718 151.267C160.949 151.267 178.315 151.267 212.545 151.267C212.821 151.267 213.052 151.491 213.052 151.767V256V360.232C213.052 360.509 212.828 360.732 212.552 360.732H126.712C126.436 360.732 126.212 360.509 126.212 360.232V151.767Z" fill="#22D3C5"/>
<path d="M151.004 212.187C150.809 211.991 150.811 211.672 151.006 211.476C172.509 189.864 189.581 172.706 211.085 151.094C211.28 150.899 211.597 150.897 211.792 151.093L289.764 229.457L361.225 301.278C361.42 301.474 361.42 301.791 361.225 301.987L301.143 362.372C300.948 362.568 300.632 362.568 300.437 362.372L151.004 212.187Z" fill="#22D3C5"/>
<path d="M298.949 152.908C298.949 152.631 299.18 152.408 299.456 152.408C333.687 152.408 351.052 152.408 385.283 152.408C385.559 152.408 385.789 152.631 385.789 152.908V257.14V361.373C385.789 361.649 385.565 361.873 385.289 361.873H299.449C299.173 361.873 298.949 361.649 298.949 361.373V152.908Z" fill="#22D3C5"/>
</svg>
